<?xml version="1.0" encoding="UTF-8"?>
<svg id="edit" xmlns="http://www.w3.org/2000/svg" viewBox="0 0 577.34 304.25">
  <defs>
    <style>
      .cls-1 {
        fill: #ffefe9;
        stroke-width: 3px;
      }

      .cls-1, .cls-2, .cls-3 {
        stroke: #000;
      }

      .cls-2 {
        fill: #ffd0c7;
        stroke-width: 2px;
      }

      .cls-3 {
        fill: #f6653f;
        stroke-width: 5px;
      }
    </style>
  </defs>
  <path class="cls-2" d="M423.92-15.28l-283.9-29.97c-8.46-.89-16.05,5.24-16.94,13.71l-26.79,253.75c-.89,8.46,5.24,16.05,13.71,16.94l283.9,29.97c8.46.89,16.05-5.24,16.94-13.71L437.63,1.66c.89-8.46-5.24-16.05-13.71-16.94ZM164.67,213.99c-.78,7.35-7.37,12.69-14.72,11.91l-23.62-2.49c-7.35-.78-12.69-7.37-11.91-14.72l2.49-23.62c.78-7.35,7.37-12.69,14.72-11.91l23.62,2.49c7.35.78,12.69,7.37,11.91,14.72l-2.49,23.62ZM171.56,148.67c-.78,7.35-7.37,12.69-14.72,11.91l-23.62-2.49c-7.35-.78-12.69-7.37-11.91-14.72l2.49-23.62c.78-7.35,7.37-12.69,14.72-11.91l23.62,2.49c7.35.78,12.69,7.37,11.91,14.72l-2.49,23.62ZM178.46,83.35c-.78,7.35-7.37,12.69-14.72,11.91l-23.62-2.49c-7.35-.78-12.69-7.37-11.91-14.72l2.49-23.62c.78-7.35,7.37-12.69,14.72-11.91l23.62,2.49c7.35.78,12.69,7.37,11.91,14.72l-2.49,23.62ZM185.3,18.53c-.78,7.35-7.37,12.69-14.72,11.91l-23.62-2.49c-7.35-.78-12.69-7.37-11.91-14.72l2.49-23.62c.78-7.35,7.37-12.69,14.72-11.91l23.62,2.49c7.35.78,12.69,7.37,11.91,14.72l-2.49,23.62ZM316.87,124.27l-88.08,34.89c-5.54,2.19-11.43-2.28-10.81-8.2l9.23-87.41c.63-5.93,7.32-9.07,12.28-5.77l78.85,52.52c5.33,3.55,4.47,11.62-1.48,13.97ZM396.3,238.44c-.78,7.35-7.37,12.69-14.72,11.91l-23.62-2.49c-7.35-.78-12.69-7.37-11.91-14.72l2.49-23.62c.78-7.35,7.37-12.69,14.72-11.91l23.62,2.49c7.35.78,12.69,7.37,11.91,14.72l-2.49,23.62ZM403.2,173.12c-.78,7.35-7.37,12.69-14.72,11.91l-23.62-2.49c-7.35-.78-12.69-7.37-11.91-14.72l2.49-23.62c.78-7.35,7.37-12.69,14.72-11.91l23.62,2.49c7.35.78,12.69,7.37,11.91,14.72l-2.49,23.62ZM410.1,107.8c-.78,7.35-7.37,12.69-14.72,11.91l-23.62-2.49c-7.35-.78-12.69-7.37-11.91-14.72l2.49-23.62c.78-7.35,7.37-12.69,14.72-11.91l23.62,2.49c7.35.78,12.69,7.37,11.91,14.72l-2.49,23.62ZM416.94,42.98c-.78,7.35-7.37,12.69-14.72,11.91l-23.62-2.49c-7.35-.78-12.69-7.37-11.91-14.72l2.49-23.62c.78-7.35,7.37-12.69,14.72-11.91l23.62,2.49c7.35.78,12.69,7.37,11.91,14.72l-2.49,23.62Z"/>
  <g id="Layer_6" data-name="Layer 6">
    <path class="cls-1" d="M311.16,147.73c24.64,3.73,39.87,46.76,39.87,46.76l21.85,113.49-29.77,5.73-31.96-165.98Z"/>
  </g>
  <g id="Layer_6_copy" data-name="Layer 6 copy">
    <path class="cls-1" d="M238.7,208.76c-.65,24.92,39.04,47.45,39.04,47.45l107.91,41.41,10.86-28.3-157.81-60.56Z"/>
    <path class="cls-3" d="M480.82,339.42s29.48,10.97,41.97-21.58c12.49-32.55-1.73-57.89-36.4-71.2-34.67-13.31-59.41,19.42-56.21,31.19l-32.6-11.29-12.76,33.26,96.01,39.62ZM456.35,295.31s-10.4-38.49,27.65-20.24c38.05,18.25,11.97,35.44,11.97,35.44l-39.62-15.21Z"/>
  </g>
  <circle cx="351.47" cy="267.95" r="8.04"/>
</svg>