<?xml version="1.0" encoding="UTF-8"?>
<svg id="tela" xmlns="http://www.w3.org/2000/svg" xmlns:xlink="http://www.w3.org/1999/xlink" viewBox="0 0 577.34 304.25">
  <defs>
    <style>
      .cls-1 {
        fill: #fff4d1;
      }

      .cls-2 {
        fill: #ffa84f;
        stroke-width: 3px;
      }

      .cls-2, .cls-3, .cls-4 {
        stroke: #000;
        stroke-miterlimit: 10;
      }

      .cls-3 {
        stroke-width: 6px;
      }

      .cls-3, .cls-5 {
        fill: none;
      }

      .cls-3, .cls-6 {
        stroke-linecap: round;
      }

      .cls-7 {
        fill: #1d1d1b;
      }

      .cls-6 {
        stroke: #fff4d1;
        stroke-width: 5px;
      }

      .cls-4 {
        fill: #fff7de;
        stroke-width: 2px;
      }
    </style>
    <symbol id="Arrow_26" data-name="Arrow 26" viewBox="0 0 115.85 135.38">
      <g>
        <rect class="cls-5" x="35.06" y="47.66" width="45.72" height="26.28"/>
        <path class="cls-7" d="M86.67,107.13v-50.23c0-1.48,1.22-2.68,2.72-2.68h20.74c2.45,0,3.65-2.94,1.88-4.61L60.4.75c-1.05-1-2.71-1-3.76,0L5.04,49.61c-1.76,1.67-.56,4.61,1.88,4.61h20.74c1.5,0,2.72,1.2,2.72,2.68v50.23c0,1.48,1.22,2.68,2.72,2.68h50.87c1.5,0,2.72-1.2,2.72-2.68Z"/>
        <path class="cls-3" d="M3,104.41v19c0,4.95,4.02,8.97,8.97,8.97h91.91c4.95,0,8.97-4.02,8.97-8.97v-19"/>
      </g>
    </symbol>
  </defs>
  <rect class="cls-2" x="46.59" y="-3.44" width="479.17" height="306.94" rx="31.92" ry="31.92" transform="translate(8.48 -15.17) rotate(3.08)"/>
  <rect class="cls-4" x="71.52" y="19.82" width="431.24" height="224.59" rx="13.68" ry="13.68" transform="translate(7.52 -15.25) rotate(3.08)"/>
  <use width="115.85" height="135.38" transform="translate(220.68 48.84) rotate(3.08) scale(1.22 1.18)" xlink:href="#Arrow_26"/>
  <line class="cls-6" x1="75.15" y1="262.72" x2="484.96" y2="284.79"/>
  <circle class="cls-1" cx="106.67" cy="264.57" r="12.38"/>
</svg>